<?xml version="1.0" encoding="utf-8"?>
<!-- Generator: Adobe Illustrator 22.1.0, SVG Export Plug-In . SVG Version: 6.00 Build 0)  -->
<svg version="1.1" id="圖層_1" xmlns="http://www.w3.org/2000/svg" xmlns:xlink="http://www.w3.org/1999/xlink" x="0px" y="0px"
	 viewBox="0 0 386.9 328.3" style="enable-background:new 0 0 386.9 328.3;" xml:space="preserve">
<style type="text/css">
	.st0{fill:#FFFFFF;}
</style>
<g>
	<path class="st0" d="M296.3,118.2c0.2,3-0.9,4.6-2.5,5.9c-20,15.8-39.9,31.6-59.9,47.5c-2.7,2.1-5.4,2-8.4,0.8
		c-23.4-9.8-46.9-19.4-70.3-29.3c-3.1-1.3-5.1-1-7.7,0.9c-24.3,17.5-48.7,34.9-73.1,52.3c-1.4,1-2.8,2.2-4.6,2.4
		c-2.7,0.3-4.7-0.9-5.7-3.3c-1.2-2.9-0.5-5.4,2.1-7.3c6.8-4.9,13.6-9.7,20.4-14.6c19.6-14,39.2-27.9,58.8-42
		c3.1-2.2,5.8-2.6,9.3-1.1c23.3,9.8,46.6,19.4,69.9,29.2c2.6,1.1,4.3,1.1,6.6-0.8c18.1-14.6,36.3-29,54.4-43.5
		c3.9-3.1,8.1-2.7,9.9,0.8C296.1,117,296.2,118,296.3,118.2z"/>
	<path class="st0" d="M378,313.9c-6.9,0-13.8-0.2-20.6,0.1c-3.3,0.1-4.3-0.7-4.3-4.2c0.1-53.9,0.1-107.7,0.1-161.6
		c0-5.9-1.9-7.8-7.8-7.8c-16,0-32,0-48,0c-7.6,0-9,1.4-9,8.9c0,40.5,0,81,0,121.5c0,12.9-0.1,25.7,0.1,38.6c0.1,3.5-0.6,5-4.4,4.6
		c-3.6-0.4-7.3-0.3-10.9,0c-3.7,0.3-4.5-0.9-4.5-4.5c0.2-34.4,0.1-68.7,0.1-103.1c0-6.4-1.7-8-8-8c-6.7,0-13.5,0-20.2,0
		c-9.9,0-19.7,0-29.6,0c-5.4,0-7.2,1.9-7.3,7.2c0,1.7,0,3.5,0,5.2c0,33.1,0,66.2,0.1,99.4c0,2.8-0.6,4-3.7,3.8
		c-3.9-0.3-7.8-0.3-11.6,0c-3.7,0.3-4.5-0.9-4.5-4.5c0.1-37.2,0.1-74.5,0.1-111.7c0-6.3-1.6-8-7.9-8c-16.5,0-33,0-49.5,0
		c-5.5,0-7.3,1.9-7.3,7.5c0,13.7,0,27.5,0,41.2c0,24.1,0,48.2,0,72.4c0,2.3-0.4,3.3-3,3.2c-4.2-0.2-8.5-0.3-12.7,0
		c-3.1,0.2-3.9-0.6-3.9-3.8c0.2-26,0.1-52,0.1-78c0-6.8-1.7-8.5-8.3-8.5c-16.2,0-32.5,0-48.7,0c-6.5,0-8.2,1.7-8.2,8.2
		c0,26.2,0,52.5,0.1,78.7c0,2.6-0.6,3.4-3.3,3.3c-7-0.2-14,0.1-21-0.1c-3.5-0.1-6.5,0.6-8.8,3.5c0,1.5,0,3,0,4.5
		c1.9,3.1,4.8,3.8,8.3,3.8c60-0.1,120-0.1,180-0.1c62.7,0,125.5,0,188.2,0c5,0,7.6-2.2,7.5-6.3C385.4,315.6,383.1,313.9,378,313.9z
		 M87.7,274.5c0,12-0.1,24,0.1,36c0,2.5-0.4,3.4-3.2,3.4c-11.9-0.2-23.7-0.1-35.6,0c-2.2,0-3-0.5-3-2.9c0.1-24.2,0.1-48.5,0-72.7
		c0-2.3,0.6-3,2.9-3c11.9,0.1,23.7,0.1,35.6,0c2.6,0,3.3,0.6,3.3,3.3C87.6,250.5,87.7,262.5,87.7,274.5z M172.5,311.1
		c0,2-0.4,2.8-2.6,2.8c-12.1-0.1-24.2-0.2-36.3,0c-2.9,0-2.8-1.4-2.8-3.5c0-17.6,0-35.2,0-52.8s0.1-35.2-0.1-52.8
		c0-2.9,0.7-3.8,3.7-3.7c11.7,0.2,23.5,0.1,35.2,0c2.3,0,2.9,0.6,2.9,2.9C172.5,239.7,172.5,275.4,172.5,311.1z M253,313.9
		c-11.6-0.2-23.2-0.1-34.8,0c-2.2,0-3-0.4-3-2.8c0.1-32.8,0.1-65.7,0-98.5c0-2.2,0.7-2.6,2.7-2.6c12,0.1,24,0.1,36,0
		c2.5,0,3,0.8,3,3.1c-0.1,16.2-0.1,32.5-0.1,48.7c0,16.1-0.1,32.2,0.1,48.3C257,313.3,256,314,253,313.9z M338.2,313.9
		c-11.6-0.1-23.2-0.2-34.8,0c-2.9,0-3.4-0.7-3.4-3.5c0.1-26,0.1-52,0.1-77.9c0-25.5,0.1-51-0.1-76.4c0-3.1,0.4-4.2,3.9-4.1
		c11.5,0.3,23,0.2,34.5,0c2.5,0,3.4,0.6,3.4,3.3c-0.1,51.8-0.1,103.7,0,155.5C341.7,313.6,340.6,313.9,338.2,313.9z"/>
	<path class="st0" d="M322,3.1c-29.8-0.5-53.4,22.4-53.9,52.4c-0.5,29,22.9,52.7,52.1,53.1c28.5,0.4,52.8-23.1,53.3-51.4
		C374,27.5,351.2,3.6,322,3.1z M320.8,96.8c-22.9,0.1-41.5-18.4-41.5-41.2c0-22.4,18.4-40.7,41.1-40.9c22.7-0.2,41.1,18,41.5,40.9
		C362.3,78.2,343.7,96.7,320.8,96.8z"/>
	<path class="st0" d="M304.6,70.3c4.9,1.7,9.3,3.8,14.4,3.4c3.4-0.3,6.3-1.4,7.2-4.8c0.9-3.5-1-6-4.3-7.4c-2.8-1.3-5.7-2.4-8.5-3.9
		c-5.5-2.9-8.9-7.5-8.7-13.8c0.2-6.3,2.7-11.8,9-14.3c2.6-1,2.2-2.7,2.1-4.4c-0.3-2.7,0.5-4,3.4-3.5c0.8,0.1,1.8,0.1,2.6,0
		c2.3-0.3,3.3,0.6,2.8,2.9c-0.5,2.8,0.3,4.4,3.4,4.6c1.7,0.1,4.3,0.2,4.6,1.6c0.4,2.5-0.2,5.2-0.7,7.8c-0.2,1.3-1.4,0.6-2.2,0.4
		c-2.9-0.7-5.8-1.7-8.8-1.4c-2.8,0.3-4.7,1.6-5.3,4.4c-0.5,2.8-0.1,5.3,2.7,6.7c3.2,1.6,6.6,3,9.8,4.6c5.9,2.9,9.4,7.4,9.3,14.1
		c-0.1,6.5-3.2,11.6-9.4,14.1c-2.7,1.1-2.8,2.8-2.5,4.9c0.3,2.8-0.5,3.6-3.5,3.8c-4.2,0.2-5.9-0.9-5.1-5.2c0.3-1.5-0.3-2.1-2-2.4
		c-3.3-0.5-6.5-1.6-9.8-2.1c-1.8-0.3-1.6-1.2-1.5-2.3C304,75.7,304.3,73.2,304.6,70.3z"/>
</g>
</svg>
