<?xml version="1.0" encoding="utf-8"?>
<!-- Generator: Adobe Illustrator 22.1.0, SVG Export Plug-In . SVG Version: 6.00 Build 0)  -->
<svg version="1.1" id="圖層_1" xmlns="http://www.w3.org/2000/svg" xmlns:xlink="http://www.w3.org/1999/xlink" x="0px" y="0px"
	 viewBox="0 0 309.9 328.3" style="enable-background:new 0 0 309.9 328.3;" xml:space="preserve">
<style type="text/css">
	.st0{fill:#FFFFFF;}
</style>
<g>
	<path class="st0" d="M227.5,306.4c0.2-0.7,0.8-0.6,1.3-0.6c0.2,0.1,0.3,0.2,0.3,0.4c-0.1,0.1-0.1,0.2-0.2,0.2
		C228.4,306.4,227.9,306.4,227.5,306.4z"/>
	<path class="st0" d="M228.8,306.4c0-0.2,0-0.4,0-0.6c0.6-0.1,1.1,0,1.4,0.6C229.7,306.4,229.3,306.4,228.8,306.4z"/>
	<path class="st0" d="M154.6,250.4c-17-0.2-32.7-4.7-46.9-14.1c-3.5-2.3-4.4-4.9-2.7-7.5c1.7-2.5,4.4-2.6,8-0.5
		c27.8,16.8,55.6,16.8,83.4,0.1c0.4-0.2,0.7-0.5,1.1-0.7c2.7-1.5,5.3-1.1,6.9,1c1.6,2.3,1.1,5.1-1.7,7c-6.7,4.6-13.9,8.1-21.6,10.5
		C172.5,249.1,163.7,250.4,154.6,250.4z"/>
	<path class="st0" d="M17.3,138.5c-2.5-0.3-4.2-1.6-4.6-4.2c-0.2-1.1-0.2-2.3-0.1-3.4c0.2-2-0.3-3-2.5-2.6c-0.7,0.1-1.3,0-2,0
		c-3.6-0.2-5.7-2-5.6-4.9c0-2.9,2.2-5,5.8-4.7c3.8,0.3,4.7-0.9,4.4-4.5c-0.3-3.5,1.9-5.7,4.8-5.7c2.8,0,4.9,2.2,4.6,5.8
		c-0.3,3.4,0.7,4.7,4.3,4.4c3.9-0.3,6,1.8,5.9,4.8c0,3.1-2.1,5-6.1,4.7c-3.5-0.3-4.4,0.9-4.1,4.2C22.3,136.3,20.2,138.6,17.3,138.5z
		"/>
	<path class="st0" d="M307,154.1c0,2.9-2.2,5-5.7,4.7c-3.7-0.4-4.8,0.8-4.5,4.5c0.3,3.5-1.8,5.7-4.7,5.7c-2.9,0-5-2.1-4.7-5.7
		c0.3-3.7-0.7-4.9-4.5-4.5c-3.7,0.3-5.7-1.6-5.7-4.6c-0.1-3.2,1.9-5,5.9-4.7c3.6,0.3,4.6-0.9,4.3-4.4c-0.3-3.9,1.6-5.9,4.8-5.8
		c3,0.1,4.9,2.1,4.6,5.8c-0.4,3.8,0.9,4.8,4.6,4.5C304.9,149.1,307,151.2,307,154.1z"/>
	<path class="st0" d="M231.6,12c1.9,0.2,3.5,1.4,4,3.8c0.2,1.1,0.2,2.3,0.1,3.4c-0.3,2.3,0.4,3.4,2.8,3c0.5-0.1,1.1,0,1.7,0
		c3.6,0.1,5.6,1.8,5.6,4.8c0,3-2,4.9-5.7,4.6c-3.7-0.3-4.9,0.7-4.6,4.5c0.3,3.8-1.5,5.7-4.6,5.7c-3.1,0-5.1-2.1-4.8-5.9
		c0.3-3.6-0.9-4.6-4.4-4.3c-3.6,0.3-5.8-1.7-5.9-4.5c-0.1-3,2.2-5.1,5.9-4.8c3.5,0.3,4.6-0.8,4.3-4.3C226,14.1,228.1,11.9,231.6,12z
		"/>
	<path class="st0" d="M215.4,168.9c0,2.9-1.3,4.7-4.2,5.1c-2.7,0.4-4.7-1.4-5.3-4.4c-0.7-3.7-2.6-5.6-5.5-5.6
		c-2.8,0.1-4.7,1.9-5.3,5.4c-0.6,3.1-2.4,4.8-5.2,4.6c-2.7-0.2-4.3-2.2-4.3-5.4c0.1-7.7,7-14.4,15-14.3
		C208.6,154.4,215.5,161.2,215.4,168.9z"/>
	<path class="st0" d="M94.1,168.5c0.2-7.6,7-14.1,14.8-14.1c7.9,0,14.9,6.6,14.9,14.3c0,3.1-1.6,5.2-4.4,5.3
		c-2.9,0.1-4.6-1.5-5.1-4.3c-0.7-3.9-2.4-5.7-5.4-5.7c-3,0-4.8,1.9-5.5,5.6c-0.6,3.1-2.5,4.7-5.3,4.4
		C95.5,173.7,94,171.7,94.1,168.5z"/>
	<path class="st0" d="M271.2,202.4c-0.2-3.9-2.1-5.9-5.2-5.7c-3.1,0.2-4.6,2.3-4.4,6.3c0.4,7.5,0.1,15-1,22.5
		c-9.7,65.3-75.2,106.5-138,86.8c-66-20.8-95.3-97.4-60.1-157c0.8-1.3,1.6-2.6,1.8-4.3c2.4-20.9,5-41.9,7.3-62.8
		c0.3-2.7,0.9-2.9,3.1-1.7c13.5,6.8,27,13.5,40.5,20.4c2.9,1.5,5.5,1.7,8.6,0.7c20.5-6.2,41.1-6.1,61.6,0c3,0.9,5.5,0.7,8.3-0.7
		c13.6-6.9,27.2-13.7,40.8-20.5c1.2-0.6,2.5-1.9,2.8,1c2,17.7,4,35.4,6.2,53.1c0.6,4.6,0,9.6,2.5,13.8c4.9,8.4,8.8,17.1,11.5,26.4
		c1,3.5,3.3,4.9,6.2,4c2.8-0.8,3.8-3.3,2.9-6.8c-2.5-9-6.1-17.5-10.8-25.6c-1-1.8-1.7-3.6-2-5.6c-2.6-22.2-5.2-44.3-7.7-66.5
		c-0.8-6.9-3.4-8.5-9.6-5.4c-15.1,7.6-30.2,15.1-45.3,22.7c-1.6,0.8-3,1-4.8,0.5c-21.4-5.9-42.7-6-64.1,0.1
		c-1.8,0.5-3.2,0.1-4.8-0.6c-15-7.5-30-15-45-22.5c-6.4-3.2-8.9-1.6-9.7,5.5c-2.5,22-5.1,43.9-7.6,65.9c-0.3,2.2-1,4.3-2.1,6.3
		c-13.8,24.7-18.3,51-13.3,78.9c2,11.1,6.3,21.4,10.6,31.8c7.9,19.4,15.1,39,22.6,58.6c0.8,2,1.8,3.7,3.4,5.1c6.3,0,12.6,0,18.9,0
		c1.9-0.5,3-1.7,3.7-3.5c0.5-1.4,0.9-2.8,1.3-4.2c1.1-3.9,1.1-3.9,4.7-2.4c4.9,2,9.7,4.2,14.7,5.7c7.6,2.4,15.4,3.7,23.3,4.4
		c1.1,0,2.2,0,3.4,0c0.4-0.4,0.9-0.3,1.3-0.3c0.5,0,1-0.1,1.3,0.3c3.6,0,7.2,0,10.8,0c0.4-0.4,0.9-0.3,1.3-0.3c0.5,0,1-0.1,1.3,0.3
		c0.7,0,1.3,0,2,0c1.7-0.8,3.5-0.3,5.3-0.4c11.6-0.9,22.4-4.6,33-9.1c4.8-2,4.8-2,6.3,3.1c0.8,2.7,1.4,5.5,4.7,6.4
		c6.3,0,12.6,0,18.9,0c3.1-2.4,3.7-6.2,5.1-9.5c7.9-19.9,14.9-40.1,23.4-59.7C269,239.9,272.3,221.5,271.2,202.4z M92.4,310
		c-0.3,0.6-0.4,1.3-0.6,1.9c-1.6,5.3-3.6,6.5-9.1,5.3c-0.9-0.2-1.2-0.7-1.6-1.5c-2.8-7.5-5.7-14.9-9-23.3
		c6.5,6.2,12.7,11.3,19.4,15.5C92.4,308.5,92.9,309,92.4,310z M228.2,316c-0.3,0.9-0.8,1.3-1.7,1.2c-0.4,0-0.9,0-1.3,0
		c-5.8,0.1-7.7-1.6-8.2-7.5c-0.1-0.9,0.3-1.2,0.8-1.6c6.3-4,12-8.7,17.5-13.6c0.1-0.1,0.4,0,1.3-0.1
		C233.6,301.8,230.9,308.9,228.2,316z"/>
	<path class="st0" d="M154.7,3.3c-24.3,0-44,19.8-43.9,44.2c0.1,24.2,19.8,43.8,43.9,43.8c24.2,0,43.8-19.7,43.9-43.9
		C198.7,23,179.1,3.3,154.7,3.3z M154.6,81.6c-19.1-0.1-34.4-15.5-34.3-34.6c0.1-18.9,15.8-34.4,34.7-34.3
		c19,0.2,34.2,15.8,34.1,34.8C189,66.5,173.6,81.7,154.6,81.6z"/>
	<path class="st0" d="M179.8,182.9c-13.8-11.1-37.1-10.8-50.7,0.5c-12.9,10.8-12.9,27.2,0.1,37.9c7.4,6.1,16.1,8.5,25.1,8.6
		c9.1-0.1,17.2-2.2,24.3-7.2C193.3,212.4,193.8,194.2,179.8,182.9z M174.3,214.1c-5.7,4.7-12.5,6.4-19.7,6.4c-7.3,0-14-1.8-19.7-6.5
		c-7.9-6.5-7.8-16.6,0.1-23.1c10.3-8.5,28.7-8.6,39.2-0.2C182.5,197.2,182.6,207.4,174.3,214.1z"/>
	<path class="st0" d="M110,110.4c-8.8-4.6-17.7-9-26.7-13.4c-3.5-1.7-6.7,0-7.2,3.8c-1.4,11-2.6,22-3.8,32.5c-0.2,2.5,0.6,4,2.2,5
		c1.8,1.1,3.6,0.9,5.4-0.2c10.1-6.3,20.3-12.6,30.4-19C114.2,116.7,114.1,112.5,110,110.4z M82.9,125.1c0.7-5.8,1.3-11,1.9-16.6
		c4.6,2.3,8.9,4.4,13.8,6.8C93.3,118.6,88.4,121.7,82.9,125.1z"/>
	<path class="st0" d="M233.3,100.8c-0.5-3.8-3.8-5.4-7.3-3.7c-8.9,4.4-17.8,8.8-26.7,13.4c-3.7,1.9-4.1,6.2-0.7,8.4
		c10.3,6.7,20.8,13.2,31.3,19.6c3.6,2.2,7.3-0.3,7.2-5.1C235.9,122.8,234.8,111.8,233.3,100.8z M210.9,115.3
		c4.8-2.4,9.2-4.6,13.8-6.9c0.6,5.6,1.2,10.8,1.9,16.6C221.2,121.7,216.3,118.7,210.9,115.3z"/>
	<path class="st0" d="M160.1,57.4c0-5.5,0-5.7-5.4-5.4c-11.4,0.7-15.7-3.5-14.9-14.9c0.1-1.7,0-3.4,0-5c0.1-4.9,3-8.5,7.8-9.7
		c1.3-0.3,2.4-0.2,2.7-2.1c0.4-2,2.2-3.1,4.3-3.1c2.3,0,4,1,4.6,3.2c0.4,1.5,1.1,1.7,2.4,2c4.7,1,7.9,4.8,8,9.1
		c0.1,2.7-1.1,4.6-3.8,5.2c-2.5,0.5-4.6-0.6-5.3-3c-0.5-1.9-1.5-2-3.1-2c-8.2,0-8.1-0.1-8.2,8.2c0,2.2,0.6,2.9,2.8,2.7
		c2.5-0.2,4.9-0.1,7.4,0c6.1,0.2,10,4.2,10.1,10.2c0.1,3.3,0.1,6.5,0,9.8c-0.1,4.9-3,8.5-7.8,9.6c-1.4,0.3-2.3,0.5-2.7,2.2
		c-0.5,2-2.1,3.1-4.3,3.1c-2.2,0-3.9-1-4.4-3c-0.5-1.8-1.5-2.1-3-2.4c-4.5-1-7.7-5.1-7.6-9.4c0.1-2.5,1.3-4.1,3.6-4.6
		c2.3-0.6,4.5,0.2,5.2,2.5c0.7,2.3,2.1,2.5,4,2.3c0.7-0.1,1.3,0,2,0C160.1,62.8,160.1,62.8,160.1,57.4z"/>
	<path class="st0" d="M174.8,204.8c0.1,2.5-2,4.7-4.6,4.8c-2.7,0.1-4.7-1.8-4.9-4.4c-0.1-2.8,2-5,4.7-5
		C172.5,200.1,174.7,202.3,174.8,204.8z"/>
	<path class="st0" d="M144.2,205c0,2.6-2,4.6-4.7,4.6c-2.6,0-4.8-2.1-4.8-4.5c-0.1-2.6,2.3-5,4.9-4.9
		C142,200.2,144.2,202.5,144.2,205z"/>
</g>
</svg>
